<svg width="200" height="200" viewBox="0 0 200 200" fill="none" xmlns="http://www.w3.org/2000/svg">
<g id="Frame 1">
<rect width="200" height="200" fill="white"/>
<rect id="rect" x="2.5" y="2.5" width="195" height="195" stroke="#133D04" stroke-width="5"/>
<path id="Ellipse 1" d="M176.5 100.5C176.5 140.711 142.358 173.5 100 173.5C57.6422 173.5 23.5 140.711 23.5 100.5C23.5 60.2888 57.6422 27.5 100 27.5C142.358 27.5 176.5 60.2888 176.5 100.5Z" fill="#133D04" stroke="#133D04" stroke-width="5"/>
<path id="Grand Color Scheme" d="M63.2031 88.3242C63.0391 88.6445 62.8477 88.9492 62.6289 89.2383C62.418 89.5195 62.1953 89.7812 61.9609 90.0234C61.7266 90.2578 61.4922 90.4766 61.2578 90.6797C61.0234 90.875 60.8086 91.0469 60.6133 91.1953V92.543C60.6133 93.5664 60.5312 94.4766 60.3672 95.2734C60.2109 96.0703 59.9805 96.7461 59.6758 97.3008C59.3789 97.8555 59.0195 98.2773 58.5977 98.5664C58.1836 98.8555 57.7188 99 57.2031 99C56.9219 99 56.6641 98.9414 56.4297 98.8242C56.1953 98.7148 55.9922 98.5625 55.8203 98.3672C55.6562 98.1719 55.5273 97.9414 55.4336 97.6758C55.3398 97.418 55.293 97.1406 55.293 96.8438C55.293 96.2734 55.3867 95.7461 55.5742 95.2617C55.7695 94.7852 56.0312 94.332 56.3594 93.9023C56.6875 93.4805 57.0664 93.0781 57.4961 92.6953C57.9258 92.3047 58.3828 91.918 58.8672 91.5352C58.875 91.1055 58.8867 90.6797 58.9023 90.2578C58.9258 89.8359 58.9453 89.4375 58.9609 89.0625C58.9844 88.6875 59.0039 88.3477 59.0195 88.043C59.043 87.7383 59.0625 87.4883 59.0781 87.293C58.8125 87.832 58.5117 88.3633 58.1758 88.8867C57.8477 89.4023 57.4961 89.8945 57.1211 90.3633C56.7461 90.832 56.3516 91.2656 55.9375 91.6641C55.5312 92.0547 55.1211 92.3945 54.707 92.6836C54.293 92.9727 53.8789 93.1953 53.4648 93.3516C53.0586 93.5156 52.668 93.5977 52.293 93.5977C51.8711 93.5977 51.4688 93.5117 51.0859 93.3398C50.7109 93.1758 50.3789 92.9141 50.0898 92.5547C49.8086 92.1953 49.5859 91.7344 49.4219 91.1719C49.25 90.6094 49.1641 89.9375 49.1641 89.1562C49.1641 88.2812 49.2617 87.3828 49.457 86.4609C49.6523 85.5391 49.9219 84.625 50.2656 83.7188C50.6094 82.8125 51.0195 81.9258 51.4961 81.0586C51.9727 80.1914 52.4922 79.375 53.0547 78.6094C53.6172 77.8359 54.2148 77.1289 54.8477 76.4883C55.4805 75.8398 56.125 75.2812 56.7812 74.8125C57.4375 74.3438 58.0938 73.9805 58.75 73.7227C59.4141 73.457 60.0586 73.3242 60.6836 73.3242C61.3398 73.3242 61.8633 73.4922 62.2539 73.8281C62.6523 74.1562 62.8516 74.625 62.8516 75.2344C62.8516 75.5625 62.7812 75.8828 62.6406 76.1953C62.5078 76.5 62.3242 76.7969 62.0898 77.0859C61.8633 77.3672 61.6055 77.6367 61.3164 77.8945C61.0273 78.1445 60.7305 78.375 60.4258 78.5859C60.1289 78.7969 59.832 78.9844 59.5352 79.1484C59.2461 79.3125 58.9883 79.4492 58.7617 79.5586L58.4102 79.0781C58.707 78.9297 59.0312 78.7188 59.3828 78.4453C59.7344 78.1719 60.0625 77.8633 60.3672 77.5195C60.6719 77.1758 60.9258 76.8047 61.1289 76.4062C61.332 76.0078 61.4336 75.6094 61.4336 75.2109C61.4336 74.875 61.3438 74.5977 61.1641 74.3789C60.9922 74.1523 60.7148 74.0391 60.332 74.0391C59.7383 74.0391 59.1016 74.2227 58.4219 74.5898C57.75 74.957 57.0781 75.4688 56.4062 76.125C55.7422 76.7812 55.1055 77.5664 54.4961 78.4805C53.8867 79.3867 53.3477 80.3828 52.8789 81.4688C52.4102 82.5547 52.0352 83.707 51.7539 84.9258C51.4727 86.1445 51.332 87.3945 51.332 88.6758C51.332 89.2383 51.3711 89.7422 51.4492 90.1875C51.5352 90.6328 51.6523 91.0117 51.8008 91.3242C51.957 91.6289 52.1445 91.8672 52.3633 92.0391C52.5898 92.2031 52.8438 92.2852 53.125 92.2852C53.4688 92.2852 53.8438 92.1797 54.25 91.9688C54.6562 91.7578 55.0625 91.4727 55.4688 91.1133C55.8828 90.7539 56.2891 90.3398 56.6875 89.8711C57.0859 89.3945 57.4531 88.8945 57.7891 88.3711C58.125 87.8477 58.418 87.3164 58.668 86.7773C58.918 86.2383 59.1016 85.7266 59.2188 85.2422C59.2656 84.6719 59.3125 84.1523 59.3594 83.6836C59.4062 83.207 59.4492 82.7891 59.4883 82.4297C59.5352 82.0703 59.5781 81.7812 59.6172 81.5625C59.6562 81.3359 59.6914 81.1875 59.7227 81.1172C59.7852 81 59.875 80.8828 59.9922 80.7656C60.1094 80.6484 60.2344 80.5469 60.3672 80.4609C60.5078 80.3672 60.6445 80.293 60.7773 80.2383C60.9102 80.1836 61.0234 80.1562 61.1172 80.1562C61.2422 80.1562 61.3242 80.207 61.3633 80.3086C61.4102 80.4102 61.4336 80.5195 61.4336 80.6367C61.4336 80.9805 61.375 81.4375 61.2578 82.0078C61.1406 82.5781 60.9922 83.2422 60.8125 84C60.7344 84.3281 60.6758 84.7617 60.6367 85.3008C60.6055 85.832 60.582 86.4023 60.5664 87.0117C60.5586 87.6133 60.5547 88.2227 60.5547 88.8398C60.5547 89.4492 60.5508 89.9961 60.543 90.4805C61.1211 90.0586 61.582 89.625 61.9258 89.1797C62.2773 88.7266 62.543 88.3203 62.7227 87.9609L62.8516 87.7148L63.332 88.0781L63.2031 88.3242ZM58.8438 92.4023C58.4766 92.6914 58.1406 92.9961 57.8359 93.3164C57.5312 93.6367 57.2695 93.9805 57.0508 94.3477C56.8398 94.7148 56.6719 95.1133 56.5469 95.543C56.4297 95.9805 56.3711 96.4531 56.3711 96.9609C56.3711 97.4453 56.4492 97.8047 56.6055 98.0391C56.7617 98.2812 56.9609 98.4023 57.2031 98.4023C57.4453 98.4023 57.6641 98.2969 57.8594 98.0859C58.0625 97.8828 58.2344 97.543 58.375 97.0664C58.5234 96.5977 58.6367 95.9805 58.7148 95.2148C58.8008 94.4492 58.8438 93.5117 58.8438 92.4023ZM62.7461 87.9609L62.8633 87.7148C62.9805 87.4805 63.0859 87.2383 63.1797 86.9883C63.2812 86.7383 63.3672 86.5039 63.4375 86.2852C63.5078 86.0586 63.5625 85.8594 63.6016 85.6875C63.6406 85.5078 63.668 85.3711 63.6836 85.2773C63.4805 85.2539 63.2852 85.2031 63.0977 85.125C62.9102 85.0469 62.7461 84.9414 62.6055 84.8086C62.4648 84.6758 62.3555 84.5195 62.2773 84.3398C62.1914 84.1602 62.1484 83.957 62.1484 83.7305C62.1484 83.5508 62.1797 83.3906 62.2422 83.25C62.3047 83.1094 62.3906 82.9922 62.5 82.8984C62.6016 82.8047 62.7188 82.7344 62.8516 82.6875C62.9766 82.6328 63.1094 82.6055 63.25 82.6055C63.4375 82.6055 63.6016 82.6445 63.7422 82.7227C63.8828 82.8008 64 82.9062 64.0938 83.0391C64.1875 83.1641 64.2578 83.3125 64.3047 83.4844C64.3516 83.6484 64.375 83.8203 64.375 84C64.5938 84 64.8281 83.9688 65.0781 83.9062C65.3359 83.8438 65.5938 83.7773 65.8516 83.707C66.1094 83.6289 66.3633 83.5586 66.6133 83.4961C66.8633 83.4336 67.0938 83.4023 67.3047 83.4023C67.4844 83.4023 67.6289 83.4414 67.7383 83.5195C67.8477 83.5898 67.9023 83.7109 67.9023 83.8828C67.9023 84.0078 67.8633 84.2148 67.7852 84.5039C67.7148 84.793 67.625 85.1289 67.5156 85.5117C67.4062 85.8945 67.2852 86.3125 67.1523 86.7656C67.0273 87.2109 66.9102 87.6641 66.8008 88.125C66.6914 88.5781 66.5977 89.0195 66.5195 89.4492C66.4492 89.8789 66.4141 90.2617 66.4141 90.5977C66.4141 91.0195 66.4609 91.3047 66.5547 91.4531C66.6484 91.6016 66.8164 91.6758 67.0586 91.6758C67.1602 91.6758 67.2852 91.6328 67.4336 91.5469C67.5898 91.4531 67.7773 91.2773 67.9961 91.0195C68.2148 90.7539 68.4727 90.3789 68.7695 89.8945C69.0742 89.4023 69.4258 88.7578 69.8242 87.9609L69.9414 87.7148L70.4219 88.0781L70.3047 88.3242C69.8359 89.2617 69.418 90.0312 69.0508 90.6328C68.6836 91.2344 68.3438 91.7109 68.0312 92.0625C67.7266 92.4141 67.4375 92.6602 67.1641 92.8008C66.8906 92.9336 66.6172 93 66.3438 93C65.8828 93 65.5078 92.8242 65.2188 92.4727C64.9297 92.1211 64.7852 91.5781 64.7852 90.8438C64.7852 90.4453 64.8398 90.0312 64.9492 89.6016C65.0586 89.1719 65.1953 88.7461 65.3594 88.3242C65.5234 87.8945 65.707 87.4727 65.9102 87.0586C66.1133 86.6445 66.3047 86.2539 66.4844 85.8867C66.6719 85.5117 66.8398 85.1641 66.9883 84.8438C67.1367 84.5234 67.2422 84.2422 67.3047 84L67.2344 83.9297C67.1094 83.9297 66.9414 83.9961 66.7305 84.1289C66.5195 84.2617 66.2812 84.4141 66.0156 84.5859C65.7578 84.75 65.4805 84.9062 65.1836 85.0547C64.8867 85.2031 64.5859 85.293 64.2812 85.3242C64.2656 85.4336 64.2305 85.5938 64.1758 85.8047C64.1289 86.0156 64.0625 86.25 63.9766 86.5078C63.8906 86.7656 63.793 87.0312 63.6836 87.3047C63.5742 87.5781 63.4609 87.8359 63.3438 88.0781L63.2266 88.3242L62.7461 87.9609ZM63.3203 83.2617C63.25 83.2617 63.1914 83.2852 63.1445 83.332C63.0977 83.3789 63.0742 83.4336 63.0742 83.4961C63.0742 83.5898 63.0977 83.6719 63.1445 83.7422C63.1914 83.8047 63.25 83.8594 63.3203 83.9062C63.3906 83.9453 63.4609 83.9766 63.5312 84C63.6094 84.0156 63.6758 84.0234 63.7305 84.0234C63.7305 83.8047 63.6953 83.625 63.625 83.4844C63.5547 83.3359 63.4531 83.2617 63.3203 83.2617ZM77.043 90.0938C77.043 90.5391 77.082 90.9141 77.1602 91.2188C77.2383 91.5234 77.375 91.6758 77.5703 91.6758C77.6875 91.6758 77.8125 91.6211 77.9453 91.5117C78.0859 91.3945 78.2461 91.207 78.4258 90.9492C78.6055 90.6914 78.8086 90.3594 79.0352 89.9531C79.2695 89.5391 79.5352 89.0352 79.832 88.4414L80.1836 87.7148L80.6641 88.0781L80.3125 88.8047C79.9844 89.4609 79.6758 90.0508 79.3867 90.5742C79.1055 91.0898 78.8359 91.5273 78.5781 91.8867C78.3203 92.2461 78.0664 92.5234 77.8164 92.7188C77.5742 92.9062 77.332 93 77.0898 93C76.832 93 76.6133 92.9297 76.4336 92.7891C76.2617 92.6484 76.1172 92.457 76 92.2148C75.8828 91.9648 75.793 91.6797 75.7305 91.3594C75.668 91.0312 75.625 90.6836 75.6016 90.3164C75.4141 90.6914 75.207 91.043 74.9805 91.3711C74.7539 91.6914 74.5156 91.9727 74.2656 92.2148C74.0234 92.457 73.7695 92.6484 73.5039 92.7891C73.2383 92.9297 72.9727 93 72.707 93C72.3164 93 71.9375 92.918 71.5703 92.7539C71.2031 92.5898 70.875 92.3398 70.5859 92.0039C70.3047 91.668 70.0781 91.2461 69.9062 90.7383C69.7344 90.2227 69.6484 89.6172 69.6484 88.9219C69.6484 88.1094 69.7539 87.3672 69.9648 86.6953C70.1758 86.0156 70.4609 85.4336 70.8203 84.9492C71.1797 84.457 71.5938 84.0781 72.0625 83.8125C72.5312 83.5391 73.0234 83.4023 73.5391 83.4023C73.8516 83.4023 74.1406 83.4727 74.4062 83.6133C74.6719 83.7539 74.9023 83.9258 75.0977 84.1289C75.3008 84.3242 75.4688 84.5352 75.6016 84.7617C75.7344 84.9805 75.8242 85.168 75.8711 85.3242L76.0117 84.1875C76.0273 84.0391 76.0977 83.9141 76.2227 83.8125C76.3555 83.7109 76.5 83.6328 76.6562 83.5781C76.8125 83.5156 76.9648 83.4727 77.1133 83.4492C77.2617 83.418 77.3672 83.4023 77.4297 83.4023C77.5234 83.4023 77.5859 83.418 77.6172 83.4492C77.6484 83.4805 77.6641 83.543 77.6641 83.6367C77.6641 83.7539 77.6289 83.9922 77.5586 84.3516C77.4961 84.7031 77.4258 85.1562 77.3477 85.7109C77.2773 86.2578 77.207 86.9023 77.1367 87.6445C77.0742 88.3867 77.043 89.2031 77.043 90.0938ZM75.7539 87C75.7539 86.6406 75.6992 86.2891 75.5898 85.9453C75.4805 85.5938 75.332 85.2852 75.1445 85.0195C74.957 84.7461 74.7383 84.5273 74.4883 84.3633C74.2461 84.1992 73.9883 84.1172 73.7148 84.1172C73.3789 84.1172 73.0625 84.2148 72.7656 84.4102C72.4766 84.5977 72.2227 84.8672 72.0039 85.2188C71.793 85.5625 71.625 85.9805 71.5 86.4727C71.375 86.957 71.3125 87.4922 71.3125 88.0781C71.3125 89.25 71.4961 90.1445 71.8633 90.7617C72.2305 91.3711 72.7188 91.6758 73.3281 91.6758C73.5938 91.6758 73.8672 91.5703 74.1484 91.3594C74.4375 91.1406 74.6992 90.832 74.9336 90.4336C75.1758 90.0273 75.3711 89.5352 75.5195 88.957C75.6758 88.3789 75.7539 87.7266 75.7539 87ZM84.6953 84.2109C84.4766 84.2109 84.2305 84.3086 83.957 84.5039C83.6914 84.6992 83.4219 84.9531 83.1484 85.2656C82.875 85.5703 82.6094 85.9141 82.3516 86.2969C82.1016 86.6797 81.8828 87.0586 81.6953 87.4336C81.6719 88.1211 81.6484 88.8711 81.625 89.6836C81.6094 90.4961 81.6016 91.3633 81.6016 92.2852C81.6016 92.4023 81.5469 92.5078 81.4375 92.6016C81.3359 92.6875 81.2148 92.7617 81.0742 92.8242C80.9336 92.8789 80.7891 92.9219 80.6406 92.9531C80.4922 92.9844 80.3711 93 80.2773 93C80.1602 93 80.0508 92.9648 79.9492 92.8945C79.8477 92.8242 79.7969 92.668 79.7969 92.4258C79.7969 92.3086 79.8086 92.1641 79.832 91.9922C79.8555 91.8125 79.8867 91.6211 79.9258 91.418C79.957 91.2148 79.9961 91.0078 80.043 90.7969C80.082 90.5781 80.1211 90.375 80.1602 90.1875V84.457C80.1602 84.3008 80.1641 84.1797 80.1719 84.0938C80.1719 84 80.1836 83.9297 80.207 83.8828C80.2539 83.7734 80.3359 83.6875 80.4531 83.625C80.5703 83.5625 80.6953 83.5156 80.8281 83.4844C80.9609 83.4453 81.0898 83.4219 81.2148 83.4141C81.3398 83.4062 81.4375 83.4023 81.5078 83.4023C81.6406 83.4023 81.7305 83.4375 81.7773 83.5078C81.832 83.5781 81.8594 83.7031 81.8594 83.8828C81.8594 83.8594 81.8398 84.0508 81.8008 84.457C81.7695 84.8633 81.7422 85.4453 81.7188 86.2031C81.9531 85.8359 82.207 85.4844 82.4805 85.1484C82.7539 84.8125 83.0391 84.5156 83.3359 84.2578C83.6328 84 83.9375 83.793 84.25 83.6367C84.5703 83.4805 84.8945 83.4023 85.2227 83.4023C85.8086 83.4023 86.2383 83.5898 86.5117 83.9648C86.7852 84.332 86.9219 84.832 86.9219 85.4648C86.9219 85.8633 86.8945 86.3086 86.8398 86.8008C86.793 87.2852 86.7344 87.7812 86.6641 88.2891C86.6016 88.7891 86.543 89.2812 86.4883 89.7656C86.4414 90.2422 86.418 90.6797 86.418 91.0781C86.418 91.5938 86.5781 91.8516 86.8984 91.8516C87 91.8516 87.1172 91.8008 87.25 91.6992C87.3906 91.5898 87.5625 91.3906 87.7656 91.1016C87.9766 90.8125 88.2266 90.418 88.5156 89.918C88.8047 89.4102 89.1484 88.7578 89.5469 87.9609L89.6641 87.7148L90.1445 88.0781L90.0273 88.3242C89.5586 89.2617 89.1406 90.0312 88.7734 90.6328C88.4141 91.2344 88.0859 91.7109 87.7891 92.0625C87.4922 92.4141 87.2148 92.6602 86.957 92.8008C86.6992 92.9336 86.4414 93 86.1836 93C86.0195 93 85.8555 92.9766 85.6914 92.9297C85.5273 92.8828 85.3828 92.8008 85.2578 92.6836C85.1328 92.5664 85.0312 92.4102 84.9531 92.2148C84.875 92.0117 84.8359 91.7539 84.8359 91.4414C84.8359 90.9727 84.8672 90.4453 84.9297 89.8594C84.9922 89.2734 85.0625 88.6875 85.1406 88.1016C85.2188 87.5156 85.2891 86.9648 85.3516 86.4492C85.4141 85.9258 85.4453 85.5 85.4453 85.1719C85.4453 84.8828 85.3828 84.6523 85.2578 84.4805C85.1328 84.3008 84.9453 84.2109 84.6953 84.2109ZM92.0547 93C91.5781 93 91.1641 92.8984 90.8125 92.6953C90.4688 92.4922 90.1836 92.2188 89.957 91.875C89.7305 91.5234 89.5625 91.1211 89.4531 90.668C89.3438 90.2148 89.2891 89.7344 89.2891 89.2266C89.2891 88.7812 89.332 88.3281 89.418 87.8672C89.5039 87.4062 89.625 86.9609 89.7812 86.5312C89.9453 86.0938 90.1484 85.6875 90.3906 85.3125C90.6328 84.9297 90.9102 84.5977 91.2227 84.3164C91.5352 84.0352 91.8828 83.8125 92.2656 83.6484C92.6562 83.4844 93.0742 83.4023 93.5195 83.4023C94.0273 83.4023 94.457 83.5156 94.8086 83.7422C95.168 83.9688 95.457 84.2461 95.6758 84.5742C95.6836 83.0977 95.7578 81.793 95.8984 80.6602C96.0391 79.5273 96.2344 78.5781 96.4844 77.8125C96.7422 77.0469 97.0469 76.4688 97.3984 76.0781C97.75 75.6797 98.1367 75.4805 98.5586 75.4805C98.707 75.4805 98.8398 75.5 98.957 75.5391C99.082 75.5703 99.1836 75.6328 99.2617 75.7266C99.3477 75.8203 99.4102 75.9492 99.4492 76.1133C99.4961 76.2695 99.5195 76.4727 99.5195 76.7227C99.5195 77.2383 99.4688 77.832 99.3672 78.5039C99.2656 79.168 99.1211 79.8945 98.9336 80.6836C98.7461 81.4648 98.5156 82.3008 98.2422 83.1914C97.9766 84.0742 97.6797 84.9922 97.3516 85.9453C97.3594 86.7812 97.3711 87.5039 97.3867 88.1133C97.4023 88.7227 97.4219 89.2383 97.4453 89.6602C97.4766 90.082 97.5117 90.4258 97.5508 90.6914C97.5977 90.957 97.6484 91.1641 97.7031 91.3125C97.7656 91.4531 97.8359 91.5508 97.9141 91.6055C98 91.6523 98.0938 91.6758 98.1953 91.6758C98.375 91.6758 98.5547 91.5977 98.7344 91.4414C98.9219 91.2773 99.1211 91.0391 99.332 90.7266C99.543 90.4062 99.7695 90.0156 100.012 89.5547C100.262 89.0938 100.535 88.5625 100.832 87.9609L100.961 87.7148L101.441 88.0781L101.312 88.3242C100.859 89.2383 100.461 89.9961 100.117 90.5977C99.7734 91.1914 99.457 91.668 99.168 92.0273C98.8867 92.3867 98.6172 92.6406 98.3594 92.7891C98.1016 92.9297 97.832 93 97.5508 93C97.2773 93 97.0391 92.9336 96.8359 92.8008C96.6406 92.6602 96.4727 92.4453 96.332 92.1562C96.1914 91.8594 96.0781 91.4844 95.9922 91.0312C95.9062 90.5703 95.8398 90.0195 95.793 89.3789C95.5195 89.9258 95.2383 90.4219 94.9492 90.8672C94.6602 91.3125 94.3594 91.6953 94.0469 92.0156C93.7422 92.3281 93.4219 92.5703 93.0859 92.7422C92.75 92.9141 92.4062 93 92.0547 93ZM93.7539 84C93.3242 84 92.9492 84.1328 92.6289 84.3984C92.3086 84.6562 92.043 84.9961 91.832 85.418C91.6211 85.832 91.4648 86.3008 91.3633 86.8242C91.2617 87.3477 91.2109 87.8711 91.2109 88.3945C91.2109 88.8242 91.2422 89.2383 91.3047 89.6367C91.375 90.0273 91.4766 90.375 91.6094 90.6797C91.75 90.9844 91.918 91.2266 92.1133 91.4062C92.3086 91.5859 92.5352 91.6758 92.793 91.6758C93.043 91.6758 93.2852 91.6133 93.5195 91.4883C93.7617 91.3633 94 91.1641 94.2344 90.8906C94.4688 90.6094 94.707 90.25 94.9492 89.8125C95.1914 89.3672 95.4492 88.8281 95.7227 88.1953C95.707 87.8203 95.6953 87.4219 95.6875 87C95.6797 86.5703 95.6758 86.1133 95.6758 85.6289C95.5039 85.1211 95.2422 84.7227 94.8906 84.4336C94.5469 84.1445 94.168 84 93.7539 84ZM98.6758 77.1562C98.6758 76.7969 98.6328 76.5469 98.5469 76.4062C98.4688 76.2656 98.375 76.1953 98.2656 76.1953C98.0781 76.1953 97.9258 76.3789 97.8086 76.7461C97.6914 77.1055 97.5977 77.5938 97.5273 78.2109C97.4648 78.8281 97.418 79.543 97.3867 80.3555C97.3633 81.168 97.3516 82.0234 97.3516 82.9219V84.2109C97.5938 83.4219 97.8008 82.7109 97.9727 82.0781C98.1445 81.4453 98.2812 80.8555 98.3828 80.3086C98.4844 79.7617 98.5586 79.2344 98.6055 78.7266C98.6523 78.2188 98.6758 77.6953 98.6758 77.1562ZM108.297 84.0938C108.297 85.5 108.457 86.7266 108.777 87.7734C109.098 88.8203 109.52 89.6914 110.043 90.3867C110.574 91.082 111.176 91.6055 111.848 91.957C112.527 92.3008 113.223 92.4727 113.934 92.4727C114.441 92.4727 114.941 92.3789 115.434 92.1914C115.934 92.0039 116.418 91.7227 116.887 91.3477C117.355 90.9727 117.805 90.5039 118.234 89.9414C118.672 89.3789 119.078 88.7188 119.453 87.9609L119.582 87.7148L120.062 88.0781L119.934 88.3242C119.504 89.1914 119.027 89.9531 118.504 90.6094C117.988 91.2656 117.438 91.8164 116.852 92.2617C116.266 92.6992 115.656 93.0312 115.023 93.2578C114.398 93.4844 113.758 93.5977 113.102 93.5977C112.539 93.5977 111.98 93.5156 111.426 93.3516C110.879 93.1953 110.355 92.957 109.855 92.6367C109.363 92.3086 108.902 91.8984 108.473 91.4062C108.051 90.9141 107.684 90.3398 107.371 89.6836C107.059 89.0195 106.812 88.2734 106.633 87.4453C106.461 86.6094 106.375 85.6914 106.375 84.6914C106.375 83.3711 106.484 82.1758 106.703 81.1055C106.93 80.0273 107.23 79.0703 107.605 78.2344C107.988 77.3906 108.43 76.6602 108.93 76.043C109.438 75.4258 109.969 74.918 110.523 74.5195C111.078 74.1133 111.645 73.8125 112.223 73.6172C112.801 73.4219 113.355 73.3242 113.887 73.3242C114.582 73.3242 115.223 73.4453 115.809 73.6875C116.395 73.9219 116.898 74.2578 117.32 74.6953C117.742 75.125 118.07 75.6523 118.305 76.2773C118.547 76.8945 118.668 77.582 118.668 78.3398C118.668 79.0664 118.555 79.75 118.328 80.3906C118.109 81.0312 117.812 81.5938 117.438 82.0781C117.07 82.5547 116.645 82.9336 116.16 83.2148C115.684 83.4961 115.184 83.6367 114.66 83.6367C114.309 83.6367 113.98 83.5742 113.676 83.4492C113.371 83.3242 113.105 83.1484 112.879 82.9219C112.652 82.6953 112.473 82.418 112.34 82.0898C112.207 81.7617 112.141 81.3984 112.141 81C112.141 80.6172 112.199 80.25 112.316 79.8984C112.434 79.5391 112.582 79.2109 112.762 78.9141C112.941 78.6094 113.137 78.3438 113.348 78.1172C113.566 77.8828 113.777 77.6992 113.98 77.5664L114.297 77.8828C114.133 78.0703 113.977 78.2734 113.828 78.4922C113.688 78.7031 113.562 78.9336 113.453 79.1836C113.344 79.4258 113.258 79.6875 113.195 79.9688C113.133 80.25 113.102 80.5547 113.102 80.8828C113.102 81.2188 113.141 81.5195 113.219 81.7852C113.305 82.0508 113.418 82.2773 113.559 82.4648C113.707 82.6523 113.875 82.7969 114.062 82.8984C114.25 82.9922 114.449 83.0391 114.66 83.0391C114.949 83.0391 115.238 82.9336 115.527 82.7227C115.816 82.5039 116.074 82.1875 116.301 81.7734C116.527 81.3516 116.711 80.8359 116.852 80.2266C116.992 79.6172 117.062 78.9141 117.062 78.1172C117.062 77.3984 116.98 76.7773 116.816 76.2539C116.66 75.7227 116.441 75.2852 116.16 74.9414C115.879 74.5977 115.547 74.3438 115.164 74.1797C114.781 74.0078 114.371 73.9219 113.934 73.9219C113.621 73.9219 113.266 73.9922 112.867 74.1328C112.469 74.2656 112.059 74.4883 111.637 74.8008C111.223 75.1133 110.816 75.5273 110.418 76.043C110.02 76.5508 109.66 77.1836 109.34 77.9414C109.027 78.6914 108.773 79.5742 108.578 80.5898C108.391 81.6055 108.297 82.7734 108.297 84.0938ZM129.402 88.0781L129.273 88.3242C129.008 88.8555 128.652 89.2812 128.207 89.6016C127.77 89.9141 127.293 90.1172 126.777 90.2109C126.637 90.6094 126.453 90.9805 126.227 91.3242C126.008 91.6602 125.754 91.9531 125.465 92.2031C125.184 92.4531 124.863 92.6484 124.504 92.7891C124.152 92.9297 123.77 93 123.355 93C122.754 93 122.211 92.875 121.727 92.625C121.25 92.3672 120.844 92.0234 120.508 91.5938C120.172 91.1562 119.914 90.6484 119.734 90.0703C119.555 89.4844 119.465 88.8594 119.465 88.1953C119.465 87.6172 119.531 87.0938 119.664 86.625C119.797 86.1484 119.965 85.7266 120.168 85.3594C120.371 84.9844 120.598 84.6602 120.848 84.3867C121.098 84.1055 121.344 83.875 121.586 83.6953C121.828 83.5156 122.047 83.3828 122.242 83.2969C122.445 83.2031 122.598 83.1562 122.699 83.1562L122.852 83.5664C122.531 83.8008 122.246 84.1289 121.996 84.5508C121.777 84.9102 121.578 85.3867 121.398 85.9805C121.227 86.5742 121.141 87.3125 121.141 88.1953C121.141 88.7344 121.191 89.2578 121.293 89.7656C121.395 90.2734 121.543 90.7227 121.738 91.1133C121.934 91.5039 122.172 91.8164 122.453 92.0508C122.742 92.2852 123.066 92.4023 123.426 92.4023C123.918 92.4023 124.324 92.207 124.645 91.8164C124.973 91.418 125.215 90.875 125.371 90.1875C124.965 90.1016 124.578 89.9414 124.211 89.707C123.844 89.4727 123.52 89.1836 123.238 88.8398C122.957 88.4883 122.73 88.0859 122.559 87.6328C122.395 87.1797 122.312 86.6875 122.312 86.1562C122.312 85.7188 122.367 85.3359 122.477 85.0078C122.594 84.6719 122.746 84.3945 122.934 84.1758C123.121 83.9492 123.336 83.7812 123.578 83.6719C123.828 83.5547 124.09 83.4961 124.363 83.4961C124.684 83.4961 125.012 83.5898 125.348 83.7773C125.684 83.957 125.988 84.2305 126.262 84.5977C126.535 84.957 126.758 85.4102 126.93 85.957C127.102 86.5039 127.188 87.1406 127.188 87.8672C127.188 88.1406 127.172 88.4102 127.141 88.6758C127.109 88.9414 127.062 89.1992 127 89.4492C127.375 89.3398 127.715 89.1641 128.02 88.9219C128.332 88.6797 128.59 88.3594 128.793 87.9609L128.922 87.7148L129.402 88.0781ZM123.086 86.0625C123.086 86.5234 123.148 86.9492 123.273 87.3398C123.406 87.7227 123.582 88.0625 123.801 88.3594C124.02 88.6484 124.273 88.8906 124.562 89.0859C124.852 89.2812 125.16 89.418 125.488 89.4961C125.527 89.2773 125.551 89.0508 125.559 88.8164C125.574 88.5742 125.582 88.3281 125.582 88.0781C125.582 87.5234 125.539 87.0234 125.453 86.5781C125.367 86.125 125.254 85.7422 125.113 85.4297C124.973 85.1094 124.809 84.8633 124.621 84.6914C124.434 84.5195 124.242 84.4336 124.047 84.4336C123.781 84.4336 123.555 84.5781 123.367 84.8672C123.18 85.1484 123.086 85.5469 123.086 86.0625ZM131.453 91.5117C131.594 91.5117 131.754 91.4219 131.934 91.2422C132.121 91.0547 132.32 90.8008 132.531 90.4805C132.742 90.1602 132.965 89.7852 133.199 89.3555C133.434 88.9258 133.676 88.4609 133.926 87.9609L134.043 87.7148L134.523 88.0781L134.406 88.3242C133.992 89.1523 133.621 89.8633 133.293 90.457C132.973 91.043 132.672 91.5273 132.391 91.9102C132.109 92.2852 131.84 92.5625 131.582 92.7422C131.332 92.9141 131.074 93 130.809 93C130.457 93 130.152 92.8867 129.895 92.6602C129.645 92.4258 129.434 92.0391 129.262 91.5C129.098 90.9531 128.977 90.2344 128.898 89.3438C128.812 88.4531 128.77 87.3516 128.77 86.0391C128.77 84.1797 128.848 82.5859 129.004 81.2578C129.16 79.9219 129.371 78.8281 129.637 77.9766C129.91 77.1172 130.223 76.4883 130.574 76.0898C130.934 75.6836 131.309 75.4805 131.699 75.4805C131.934 75.4805 132.129 75.5781 132.285 75.7734C132.449 75.9609 132.531 76.3047 132.531 76.8047C132.531 77.1953 132.5 77.6406 132.438 78.1406C132.375 78.6406 132.293 79.1758 132.191 79.7461C132.09 80.3164 131.969 80.9102 131.828 81.5273C131.688 82.1367 131.539 82.7461 131.383 83.3555C131.227 83.957 131.066 84.5508 130.902 85.1367C130.738 85.7148 130.578 86.2578 130.422 86.7656C130.469 87.7266 130.52 88.5156 130.574 89.1328C130.637 89.7422 130.707 90.2227 130.785 90.5742C130.871 90.9258 130.969 91.1719 131.078 91.3125C131.188 91.4453 131.312 91.5117 131.453 91.5117ZM131.77 77.0859C131.77 76.9219 131.75 76.793 131.711 76.6992C131.672 76.6055 131.609 76.5586 131.523 76.5586C131.438 76.5586 131.352 76.6797 131.266 76.9219C131.18 77.1641 131.094 77.4922 131.008 77.9062C130.93 78.3203 130.855 78.8008 130.785 79.3477C130.723 79.8945 130.664 80.4766 130.609 81.0938C130.555 81.7031 130.512 82.3281 130.48 82.9688C130.449 83.6094 130.43 84.2266 130.422 84.8203C130.609 84.1328 130.781 83.4297 130.938 82.7109C131.102 81.9844 131.246 81.2812 131.371 80.6016C131.496 79.9219 131.594 79.2812 131.664 78.6797C131.734 78.0703 131.77 77.5391 131.77 77.0859ZM143.863 88.0781L143.734 88.3242C143.469 88.8555 143.113 89.2812 142.668 89.6016C142.23 89.9141 141.754 90.1172 141.238 90.2109C141.098 90.6094 140.914 90.9805 140.688 91.3242C140.469 91.6602 140.215 91.9531 139.926 92.2031C139.645 92.4531 139.324 92.6484 138.965 92.7891C138.613 92.9297 138.23 93 137.816 93C137.215 93 136.672 92.875 136.188 92.625C135.711 92.3672 135.305 92.0234 134.969 91.5938C134.633 91.1562 134.375 90.6484 134.195 90.0703C134.016 89.4844 133.926 88.8594 133.926 88.1953C133.926 87.6172 133.992 87.0938 134.125 86.625C134.258 86.1484 134.426 85.7266 134.629 85.3594C134.832 84.9844 135.059 84.6602 135.309 84.3867C135.559 84.1055 135.805 83.875 136.047 83.6953C136.289 83.5156 136.508 83.3828 136.703 83.2969C136.906 83.2031 137.059 83.1562 137.16 83.1562L137.312 83.5664C136.992 83.8008 136.707 84.1289 136.457 84.5508C136.238 84.9102 136.039 85.3867 135.859 85.9805C135.688 86.5742 135.602 87.3125 135.602 88.1953C135.602 88.7344 135.652 89.2578 135.754 89.7656C135.855 90.2734 136.004 90.7227 136.199 91.1133C136.395 91.5039 136.633 91.8164 136.914 92.0508C137.203 92.2852 137.527 92.4023 137.887 92.4023C138.379 92.4023 138.785 92.207 139.105 91.8164C139.434 91.418 139.676 90.875 139.832 90.1875C139.426 90.1016 139.039 89.9414 138.672 89.707C138.305 89.4727 137.98 89.1836 137.699 88.8398C137.418 88.4883 137.191 88.0859 137.02 87.6328C136.855 87.1797 136.773 86.6875 136.773 86.1562C136.773 85.7188 136.828 85.3359 136.938 85.0078C137.055 84.6719 137.207 84.3945 137.395 84.1758C137.582 83.9492 137.797 83.7812 138.039 83.6719C138.289 83.5547 138.551 83.4961 138.824 83.4961C139.145 83.4961 139.473 83.5898 139.809 83.7773C140.145 83.957 140.449 84.2305 140.723 84.5977C140.996 84.957 141.219 85.4102 141.391 85.957C141.562 86.5039 141.648 87.1406 141.648 87.8672C141.648 88.1406 141.633 88.4102 141.602 88.6758C141.57 88.9414 141.523 89.1992 141.461 89.4492C141.836 89.3398 142.176 89.1641 142.48 88.9219C142.793 88.6797 143.051 88.3594 143.254 87.9609L143.383 87.7148L143.863 88.0781ZM137.547 86.0625C137.547 86.5234 137.609 86.9492 137.734 87.3398C137.867 87.7227 138.043 88.0625 138.262 88.3594C138.48 88.6484 138.734 88.8906 139.023 89.0859C139.312 89.2812 139.621 89.418 139.949 89.4961C139.988 89.2773 140.012 89.0508 140.02 88.8164C140.035 88.5742 140.043 88.3281 140.043 88.0781C140.043 87.5234 140 87.0234 139.914 86.5781C139.828 86.125 139.715 85.7422 139.574 85.4297C139.434 85.1094 139.27 84.8633 139.082 84.6914C138.895 84.5195 138.703 84.4336 138.508 84.4336C138.242 84.4336 138.016 84.5781 137.828 84.8672C137.641 85.1484 137.547 85.5469 137.547 86.0625ZM143.277 87.9609L143.395 87.7148C143.512 87.4805 143.617 87.2383 143.711 86.9883C143.812 86.7383 143.898 86.5039 143.969 86.2852C144.039 86.0586 144.094 85.8594 144.133 85.6875C144.172 85.5078 144.199 85.3711 144.215 85.2773C144.012 85.2539 143.816 85.2031 143.629 85.125C143.441 85.0469 143.277 84.9414 143.137 84.8086C142.996 84.6758 142.887 84.5195 142.809 84.3398C142.723 84.1602 142.68 83.957 142.68 83.7305C142.68 83.5508 142.711 83.3906 142.773 83.25C142.836 83.1094 142.922 82.9922 143.031 82.8984C143.133 82.8047 143.25 82.7344 143.383 82.6875C143.508 82.6328 143.641 82.6055 143.781 82.6055C143.969 82.6055 144.133 82.6445 144.273 82.7227C144.414 82.8008 144.531 82.9062 144.625 83.0391C144.719 83.1641 144.789 83.3125 144.836 83.4844C144.883 83.6484 144.906 83.8203 144.906 84C145.125 84 145.359 83.9688 145.609 83.9062C145.867 83.8438 146.125 83.7773 146.383 83.707C146.641 83.6289 146.895 83.5586 147.145 83.4961C147.395 83.4336 147.625 83.4023 147.836 83.4023C148.016 83.4023 148.16 83.4414 148.27 83.5195C148.379 83.5898 148.434 83.7109 148.434 83.8828C148.434 84.0078 148.395 84.2148 148.316 84.5039C148.246 84.793 148.156 85.1289 148.047 85.5117C147.938 85.8945 147.816 86.3125 147.684 86.7656C147.559 87.2109 147.441 87.6641 147.332 88.125C147.223 88.5781 147.129 89.0195 147.051 89.4492C146.98 89.8789 146.945 90.2617 146.945 90.5977C146.945 91.0195 146.992 91.3047 147.086 91.4531C147.18 91.6016 147.348 91.6758 147.59 91.6758C147.691 91.6758 147.816 91.6328 147.965 91.5469C148.121 91.4531 148.309 91.2773 148.527 91.0195C148.746 90.7539 149.004 90.3789 149.301 89.8945C149.605 89.4023 149.957 88.7578 150.355 87.9609L150.473 87.7148L150.953 88.0781L150.836 88.3242C150.367 89.2617 149.949 90.0312 149.582 90.6328C149.215 91.2344 148.875 91.7109 148.562 92.0625C148.258 92.4141 147.969 92.6602 147.695 92.8008C147.422 92.9336 147.148 93 146.875 93C146.414 93 146.039 92.8242 145.75 92.4727C145.461 92.1211 145.316 91.5781 145.316 90.8438C145.316 90.4453 145.371 90.0312 145.48 89.6016C145.59 89.1719 145.727 88.7461 145.891 88.3242C146.055 87.8945 146.238 87.4727 146.441 87.0586C146.645 86.6445 146.836 86.2539 147.016 85.8867C147.203 85.5117 147.371 85.1641 147.52 84.8438C147.668 84.5234 147.773 84.2422 147.836 84L147.766 83.9297C147.641 83.9297 147.473 83.9961 147.262 84.1289C147.051 84.2617 146.812 84.4141 146.547 84.5859C146.289 84.75 146.012 84.9062 145.715 85.0547C145.418 85.2031 145.117 85.293 144.812 85.3242C144.797 85.4336 144.762 85.5938 144.707 85.8047C144.66 86.0156 144.594 86.25 144.508 86.5078C144.422 86.7656 144.324 87.0312 144.215 87.3047C144.105 87.5781 143.992 87.8359 143.875 88.0781L143.758 88.3242L143.277 87.9609ZM143.852 83.2617C143.781 83.2617 143.723 83.2852 143.676 83.332C143.629 83.3789 143.605 83.4336 143.605 83.4961C143.605 83.5898 143.629 83.6719 143.676 83.7422C143.723 83.8047 143.781 83.8594 143.852 83.9062C143.922 83.9453 143.992 83.9766 144.062 84C144.141 84.0156 144.207 84.0234 144.262 84.0234C144.262 83.8047 144.227 83.625 144.156 83.4844C144.086 83.3359 143.984 83.2617 143.852 83.2617ZM80.1133 110.699C80.293 110.566 80.4531 110.406 80.5938 110.219C80.7422 110.031 80.8672 109.828 80.9688 109.609C81.0703 109.391 81.1484 109.16 81.2031 108.918C81.2578 108.676 81.2852 108.43 81.2852 108.18C81.2852 107.805 81.2188 107.434 81.0859 107.066C80.9609 106.691 80.7539 106.355 80.4648 106.059C80.1836 105.754 79.8164 105.508 79.3633 105.32C78.9102 105.133 78.3594 105.039 77.7109 105.039C76.9922 105.039 76.3125 105.156 75.6719 105.391C75.0312 105.625 74.4688 105.941 73.9844 106.34C73.5078 106.738 73.1289 107.199 72.8477 107.723C72.5664 108.246 72.4258 108.793 72.4258 109.363C72.4258 109.965 72.5664 110.5 72.8477 110.969C73.1367 111.43 73.5117 111.852 73.9727 112.234C74.4414 112.609 74.9727 112.957 75.5664 113.277C76.1602 113.598 76.7656 113.914 77.3828 114.227C78 114.539 78.6055 114.867 79.1992 115.211C79.793 115.547 80.3203 115.926 80.7812 116.348C81.25 116.77 81.625 117.242 81.9062 117.766C82.1953 118.289 82.3398 118.895 82.3398 119.582C82.3398 120.238 82.1836 120.867 81.8711 121.469C81.5586 122.07 81.1289 122.605 80.582 123.074C80.0352 123.535 79.3906 123.902 78.6484 124.176C77.9141 124.457 77.1211 124.598 76.2695 124.598C75.3164 124.598 74.5273 124.492 73.9023 124.281C73.2852 124.078 72.793 123.82 72.4258 123.508C72.0664 123.195 71.8164 122.859 71.6758 122.5C71.5352 122.133 71.4648 121.793 71.4648 121.48C71.4648 121.098 71.5234 120.754 71.6406 120.449C71.7656 120.137 71.9297 119.859 72.1328 119.617C72.3359 119.367 72.5625 119.152 72.8125 118.973C73.0703 118.785 73.332 118.629 73.5977 118.504C73.8711 118.371 74.1328 118.266 74.3828 118.188C74.6406 118.102 74.8711 118.039 75.0742 118L75.1914 118.598C75.0977 118.629 74.9258 118.707 74.6758 118.832C74.4336 118.949 74.1797 119.125 73.9141 119.359C73.6484 119.586 73.4141 119.871 73.2109 120.215C73.0078 120.559 72.9062 120.965 72.9062 121.434C72.9062 121.754 72.9727 122.066 73.1055 122.371C73.2461 122.676 73.4531 122.949 73.7266 123.191C74 123.434 74.3359 123.629 74.7344 123.777C75.1328 123.926 75.5977 124 76.1289 124C76.7695 124 77.3281 123.941 77.8047 123.824C78.2891 123.699 78.7031 123.539 79.0469 123.344C79.3984 123.148 79.6836 122.926 79.9023 122.676C80.1289 122.418 80.3047 122.152 80.4297 121.879C80.5625 121.605 80.6523 121.336 80.6992 121.07C80.7539 120.797 80.7812 120.551 80.7812 120.332C80.7812 119.738 80.6445 119.219 80.3711 118.773C80.0977 118.32 79.7344 117.918 79.2812 117.566C78.8359 117.207 78.3281 116.883 77.7578 116.594C77.1875 116.297 76.6016 116.004 76 115.715C75.4062 115.426 74.8242 115.125 74.2539 114.812C73.6836 114.5 73.1719 114.145 72.7188 113.746C72.2734 113.348 71.9141 112.895 71.6406 112.387C71.3672 111.871 71.2305 111.27 71.2305 110.582C71.2305 109.66 71.4219 108.816 71.8047 108.051C72.1875 107.277 72.7031 106.617 73.3516 106.07C74 105.516 74.75 105.086 75.6016 104.781C76.4609 104.477 77.3633 104.324 78.3086 104.324C79.1133 104.324 79.8008 104.418 80.3711 104.605C80.9414 104.793 81.4062 105.039 81.7656 105.344C82.1328 105.648 82.3984 105.996 82.5625 106.387C82.7344 106.777 82.8203 107.176 82.8203 107.582C82.8203 108.066 82.7344 108.508 82.5625 108.906C82.3984 109.305 82.1953 109.66 81.9531 109.973C81.7188 110.277 81.4648 110.535 81.1914 110.746C80.918 110.949 80.6758 111.094 80.4648 111.18L80.1133 110.699ZM88.0352 117.309C88.1289 117.16 88.207 116.977 88.2695 116.758C88.3398 116.539 88.375 116.32 88.375 116.102C88.375 115.836 88.3086 115.605 88.1758 115.41C88.043 115.215 87.8047 115.117 87.4609 115.117C87.2344 115.117 87.0039 115.199 86.7695 115.363C86.5352 115.527 86.3164 115.773 86.1133 116.102C85.918 116.43 85.7578 116.844 85.6328 117.344C85.5078 117.844 85.4453 118.43 85.4453 119.102C85.4453 119.633 85.5 120.117 85.6094 120.555C85.7188 120.992 85.8789 121.367 86.0898 121.68C86.3008 121.992 86.5547 122.238 86.8516 122.418C87.1562 122.59 87.4961 122.676 87.8711 122.676C88.1445 122.676 88.4219 122.605 88.7031 122.465C88.9922 122.324 89.2812 122.105 89.5703 121.809C89.8672 121.512 90.1719 121.129 90.4844 120.66C90.7969 120.184 91.1172 119.617 91.4453 118.961L91.5625 118.715L92.043 119.078L91.9258 119.324C91.5039 120.16 91.082 120.875 90.6602 121.469C90.2461 122.062 89.8359 122.547 89.4297 122.922C89.0234 123.297 88.625 123.57 88.2344 123.742C87.8516 123.914 87.4805 124 87.1211 124C86.6133 124 86.1602 123.895 85.7617 123.684C85.3633 123.473 85.0273 123.188 84.7539 122.828C84.4805 122.461 84.2695 122.039 84.1211 121.562C83.9805 121.078 83.9102 120.57 83.9102 120.039C83.9102 119.195 84.0234 118.43 84.25 117.742C84.4844 117.047 84.7852 116.453 85.1523 115.961C85.5195 115.469 85.9336 115.086 86.3945 114.812C86.8555 114.539 87.3203 114.402 87.7891 114.402C88.1484 114.402 88.4492 114.453 88.6914 114.555C88.9336 114.656 89.1289 114.785 89.2773 114.941C89.4258 115.098 89.5312 115.266 89.5938 115.445C89.6562 115.625 89.6875 115.797 89.6875 115.961C89.6875 116.125 89.6523 116.297 89.582 116.477C89.5117 116.648 89.4062 116.812 89.2656 116.969C89.1328 117.117 88.9727 117.254 88.7852 117.379C88.5977 117.496 88.3867 117.582 88.1523 117.637L88.0352 117.309ZM93.1328 119.922C93.1328 120.305 93.1211 120.711 93.0977 121.141C93.0742 121.562 93.0234 121.988 92.9453 122.418C92.875 122.84 92.7695 123.254 92.6289 123.66C92.4883 124.059 92.2969 124.43 92.0547 124.773L91.1641 124.504C91.3594 123.848 91.4766 123.16 91.5156 122.441C91.5547 121.723 91.5742 121.004 91.5742 120.285C91.5742 119.504 91.5508 118.723 91.5039 117.941C91.4492 117.16 91.3906 116.379 91.3281 115.598C91.2578 114.809 91.1992 114.016 91.1523 113.219C91.0977 112.422 91.0703 111.617 91.0703 110.805C91.0703 110.312 91.125 109.883 91.2344 109.516C91.3359 109.148 91.4727 108.844 91.6445 108.602C91.8164 108.359 92.0078 108.18 92.2188 108.062C92.4297 107.938 92.6406 107.875 92.8516 107.875C93.1484 107.875 93.3828 107.98 93.5547 108.191C93.7344 108.402 93.8672 108.688 93.9531 109.047C94.0391 109.406 94.082 109.824 94.082 110.301C94.0898 110.777 94.0703 111.281 94.0234 111.812C93.9766 112.344 93.9102 112.887 93.8242 113.441C93.7383 113.996 93.6445 114.535 93.543 115.059C93.4414 115.582 93.3398 116.07 93.2383 116.523C93.1445 116.977 93.0625 117.363 92.9922 117.684C92.9922 117.746 92.9961 117.812 93.0039 117.883C93.0117 117.945 93.0156 118.008 93.0156 118.07C93.1797 117.703 93.3789 117.309 93.6133 116.887C93.8555 116.457 94.125 116.059 94.4219 115.691C94.7266 115.324 95.0547 115.02 95.4062 114.777C95.7656 114.527 96.1445 114.402 96.543 114.402C97.1289 114.402 97.5703 114.598 97.8672 114.988C98.1641 115.379 98.3125 115.941 98.3125 116.676C98.3125 117.184 98.2852 117.672 98.2305 118.141C98.1758 118.609 98.1133 119.062 98.043 119.5C97.9805 119.93 97.9219 120.348 97.8672 120.754C97.8125 121.16 97.7852 121.562 97.7852 121.961C97.7852 122.438 97.9062 122.676 98.1484 122.676C98.2656 122.676 98.4141 122.574 98.5938 122.371C98.7812 122.16 98.9883 121.883 99.2148 121.539C99.4414 121.195 99.6797 120.801 99.9297 120.355C100.18 119.91 100.426 119.445 100.668 118.961L100.785 118.715L101.266 119.078L101.148 119.324C100.875 119.863 100.59 120.41 100.293 120.965C99.9961 121.52 99.6914 122.023 99.3789 122.477C99.0664 122.922 98.7461 123.289 98.418 123.578C98.0977 123.859 97.7773 124 97.457 124C97.3164 124 97.1719 123.977 97.0234 123.93C96.8828 123.883 96.7539 123.801 96.6367 123.684C96.5195 123.566 96.4219 123.41 96.3438 123.215C96.2656 123.012 96.2266 122.754 96.2266 122.441C96.2266 122.129 96.2422 121.789 96.2734 121.422C96.3047 121.055 96.3398 120.68 96.3789 120.297C96.4258 119.906 96.4766 119.52 96.5312 119.137C96.5859 118.754 96.6328 118.395 96.6719 118.059C96.7188 117.723 96.7578 117.422 96.7891 117.156C96.8203 116.883 96.8359 116.66 96.8359 116.488C96.8359 116.043 96.7734 115.719 96.6484 115.516C96.5234 115.312 96.3359 115.211 96.0859 115.211C95.7734 115.211 95.4727 115.348 95.1836 115.621C94.8945 115.895 94.6211 116.238 94.3633 116.652C94.1133 117.059 93.8828 117.5 93.6719 117.977C93.4609 118.445 93.2734 118.879 93.1094 119.277C93.1094 119.395 93.1133 119.512 93.1211 119.629C93.1289 119.738 93.1328 119.836 93.1328 119.922ZM92.3711 109.891C92.3711 110.211 92.3828 110.602 92.4062 111.062C92.4375 111.516 92.4727 112.008 92.5117 112.539C92.5586 113.07 92.6055 113.625 92.6523 114.203C92.707 114.781 92.7617 115.352 92.8164 115.914C92.9023 115.477 92.9883 114.996 93.0742 114.473C93.1602 113.941 93.2344 113.41 93.2969 112.879C93.3672 112.34 93.418 111.816 93.4492 111.309C93.4883 110.801 93.4961 110.352 93.4727 109.961C93.457 109.57 93.4062 109.258 93.3203 109.023C93.2344 108.781 93.1094 108.66 92.9453 108.66C92.7969 108.66 92.6641 108.75 92.5469 108.93C92.4297 109.109 92.3711 109.43 92.3711 109.891ZM104.242 122.676C104.516 122.676 104.793 122.605 105.074 122.465C105.363 122.324 105.652 122.105 105.941 121.809C106.238 121.512 106.543 121.129 106.855 120.66C107.168 120.184 107.488 119.617 107.816 118.961L107.934 118.715L108.414 119.078L108.297 119.324C107.875 120.16 107.453 120.875 107.031 121.469C106.617 122.062 106.207 122.547 105.801 122.922C105.402 123.297 105.008 123.57 104.617 123.742C104.227 123.914 103.852 124 103.492 124C102.984 124 102.531 123.895 102.133 123.684C101.734 123.473 101.398 123.188 101.125 122.828C100.852 122.461 100.645 122.039 100.504 121.562C100.355 121.078 100.281 120.57 100.281 120.039C100.281 119.195 100.398 118.43 100.633 117.742C100.859 117.047 101.164 116.453 101.547 115.961C101.938 115.469 102.379 115.086 102.871 114.812C103.363 114.539 103.875 114.402 104.406 114.402C104.945 114.402 105.355 114.539 105.637 114.812C105.926 115.086 106.07 115.43 106.07 115.844C106.07 116.242 105.957 116.617 105.73 116.969C105.504 117.312 105.195 117.652 104.805 117.988C104.422 118.316 103.977 118.645 103.469 118.973C102.961 119.293 102.426 119.625 101.863 119.969C101.918 120.375 102.012 120.746 102.145 121.082C102.277 121.41 102.445 121.695 102.648 121.938C102.852 122.172 103.086 122.355 103.352 122.488C103.617 122.613 103.914 122.676 104.242 122.676ZM104.605 116.195C104.605 115.883 104.52 115.637 104.348 115.457C104.184 115.277 103.98 115.188 103.738 115.188C103.535 115.188 103.32 115.262 103.094 115.41C102.867 115.551 102.66 115.781 102.473 116.102C102.285 116.414 102.129 116.816 102.004 117.309C101.879 117.801 101.816 118.398 101.816 119.102V119.371C102.082 119.23 102.375 119.047 102.695 118.82C103.023 118.586 103.328 118.328 103.609 118.047C103.891 117.766 104.125 117.469 104.312 117.156C104.508 116.836 104.605 116.516 104.605 116.195ZM111.754 115.234C111.527 115.234 111.309 115.316 111.098 115.48C110.895 115.637 110.699 115.855 110.512 116.137C110.324 116.41 110.141 116.734 109.961 117.109C109.789 117.477 109.617 117.871 109.445 118.293V118.434C109.422 119.121 109.398 119.852 109.375 120.625C109.359 121.398 109.352 122.242 109.352 123.156C109.352 123.312 109.297 123.445 109.188 123.555C109.086 123.656 108.965 123.742 108.824 123.812C108.684 123.875 108.539 123.922 108.391 123.953C108.242 123.984 108.121 124 108.027 124C107.91 124 107.801 123.965 107.699 123.895C107.598 123.824 107.547 123.668 107.547 123.426C107.547 123.309 107.559 123.164 107.582 122.992C107.605 122.812 107.637 122.621 107.676 122.418C107.707 122.215 107.746 122.008 107.793 121.797C107.832 121.578 107.871 121.375 107.91 121.188C107.91 120.523 107.91 119.926 107.91 119.395C107.902 118.863 107.898 118.391 107.898 117.977C107.898 117.562 107.898 117.199 107.898 116.887C107.891 116.574 107.887 116.305 107.887 116.078C107.887 115.703 107.895 115.43 107.91 115.258C107.918 115.078 107.934 114.953 107.957 114.883C107.996 114.773 108.066 114.688 108.168 114.625C108.277 114.562 108.391 114.516 108.508 114.484C108.625 114.445 108.742 114.422 108.859 114.414C108.977 114.406 109.066 114.402 109.129 114.402C109.277 114.402 109.375 114.445 109.422 114.531C109.469 114.617 109.492 114.75 109.492 114.93C109.492 115.336 109.492 115.703 109.492 116.031C109.492 116.359 109.484 116.688 109.469 117.016C109.617 116.664 109.789 116.332 109.984 116.02C110.188 115.699 110.41 115.422 110.652 115.188C110.895 114.945 111.148 114.754 111.414 114.613C111.688 114.473 111.969 114.402 112.258 114.402C112.609 114.402 112.898 114.477 113.125 114.625C113.359 114.766 113.543 114.965 113.676 115.223C113.816 115.48 113.918 115.785 113.98 116.137C114.051 116.48 114.098 116.855 114.121 117.262C114.34 116.863 114.574 116.492 114.824 116.148C115.082 115.797 115.352 115.492 115.633 115.234C115.922 114.977 116.223 114.773 116.535 114.625C116.855 114.477 117.188 114.402 117.531 114.402C118.125 114.402 118.559 114.59 118.832 114.965C119.105 115.332 119.242 115.832 119.242 116.465C119.242 116.863 119.211 117.309 119.148 117.801C119.086 118.293 119.02 118.793 118.949 119.301C118.879 119.801 118.812 120.293 118.75 120.777C118.688 121.262 118.656 121.703 118.656 122.102C118.656 122.586 118.777 122.828 119.02 122.828C119.145 122.828 119.281 122.754 119.43 122.605C119.578 122.449 119.746 122.215 119.934 121.902C120.129 121.582 120.352 121.18 120.602 120.695C120.859 120.211 121.156 119.633 121.492 118.961L121.609 118.715L122.09 119.078L121.973 119.324C121.512 120.246 121.117 121.008 120.789 121.609C120.469 122.211 120.18 122.691 119.922 123.051C119.664 123.402 119.418 123.648 119.184 123.789C118.957 123.93 118.703 124 118.422 124C118.258 124 118.098 123.977 117.941 123.93C117.785 123.883 117.648 123.801 117.531 123.684C117.414 123.566 117.32 123.41 117.25 123.215C117.18 123.012 117.145 122.754 117.145 122.441C117.145 121.973 117.176 121.445 117.238 120.859C117.301 120.273 117.371 119.688 117.449 119.102C117.527 118.516 117.598 117.965 117.66 117.449C117.723 116.926 117.754 116.5 117.754 116.172C117.754 115.883 117.691 115.652 117.566 115.48C117.441 115.301 117.254 115.211 117.004 115.211C116.754 115.211 116.492 115.309 116.219 115.504C115.953 115.699 115.691 115.953 115.434 116.266C115.184 116.57 114.945 116.914 114.719 117.297C114.5 117.68 114.309 118.059 114.145 118.434C114.145 119.254 114.137 119.973 114.121 120.59C114.105 121.199 114.082 121.715 114.051 122.137C114.027 122.559 113.992 122.895 113.945 123.145C113.898 123.387 113.848 123.551 113.793 123.637C113.754 123.691 113.688 123.742 113.594 123.789C113.5 123.836 113.395 123.875 113.277 123.906C113.168 123.938 113.059 123.961 112.949 123.977C112.848 123.992 112.77 124 112.715 124C112.59 124 112.48 123.965 112.387 123.895C112.301 123.816 112.258 123.668 112.258 123.449C112.258 123.348 112.266 123.211 112.281 123.039C112.305 122.867 112.332 122.676 112.363 122.465C112.395 122.254 112.43 122.027 112.469 121.785C112.508 121.543 112.547 121.297 112.586 121.047C112.594 120.812 112.602 120.551 112.609 120.262C112.617 119.973 112.625 119.688 112.633 119.406C112.641 119.117 112.645 118.844 112.645 118.586C112.652 118.32 112.656 118.094 112.656 117.906C112.656 117.508 112.645 117.145 112.621 116.816C112.598 116.488 112.551 116.207 112.48 115.973C112.418 115.738 112.328 115.559 112.211 115.434C112.094 115.301 111.941 115.234 111.754 115.234ZM125.078 122.676C125.352 122.676 125.629 122.605 125.91 122.465C126.199 122.324 126.488 122.105 126.777 121.809C127.074 121.512 127.379 121.129 127.691 120.66C128.004 120.184 128.324 119.617 128.652 118.961L128.77 118.715L129.25 119.078L129.133 119.324C128.711 120.16 128.289 120.875 127.867 121.469C127.453 122.062 127.043 122.547 126.637 122.922C126.238 123.297 125.844 123.57 125.453 123.742C125.062 123.914 124.688 124 124.328 124C123.82 124 123.367 123.895 122.969 123.684C122.57 123.473 122.234 123.188 121.961 122.828C121.688 122.461 121.48 122.039 121.34 121.562C121.191 121.078 121.117 120.57 121.117 120.039C121.117 119.195 121.234 118.43 121.469 117.742C121.695 117.047 122 116.453 122.383 115.961C122.773 115.469 123.215 115.086 123.707 114.812C124.199 114.539 124.711 114.402 125.242 114.402C125.781 114.402 126.191 114.539 126.473 114.812C126.762 115.086 126.906 115.43 126.906 115.844C126.906 116.242 126.793 116.617 126.566 116.969C126.34 117.312 126.031 117.652 125.641 117.988C125.258 118.316 124.812 118.645 124.305 118.973C123.797 119.293 123.262 119.625 122.699 119.969C122.754 120.375 122.848 120.746 122.98 121.082C123.113 121.41 123.281 121.695 123.484 121.938C123.688 122.172 123.922 122.355 124.188 122.488C124.453 122.613 124.75 122.676 125.078 122.676ZM125.441 116.195C125.441 115.883 125.355 115.637 125.184 115.457C125.02 115.277 124.816 115.188 124.574 115.188C124.371 115.188 124.156 115.262 123.93 115.41C123.703 115.551 123.496 115.781 123.309 116.102C123.121 116.414 122.965 116.816 122.84 117.309C122.715 117.801 122.652 118.398 122.652 119.102V119.371C122.918 119.23 123.211 119.047 123.531 118.82C123.859 118.586 124.164 118.328 124.445 118.047C124.727 117.766 124.961 117.469 125.148 117.156C125.344 116.836 125.441 116.516 125.441 116.195Z" fill="white"/>
</g>
</svg>
