<svg width="400" height="400" viewBox="0 0 400 400" fill="none" xmlns="http://www.w3.org/2000/svg">
<rect width="400" height="400" fill="#E5E5E5"/>
<g id="Frame 2">
<rect width="400" height="400" fill="white"/>
<ellipse id="pizza" cx="200" cy="200.5" rx="148" ry="140.5" fill="#BE7506"/>
<path id="dough" d="M85.3183 171.155C108.818 93.1549 113.318 97.6549 194.318 94.1548C275.318 90.6548 308.318 147.655 308.318 147.655L305.318 233.155C305.318 233.155 292.318 305.155 205.818 306.155C119.318 307.155 127.818 268.655 119.318 265.155C110.818 261.655 61.8183 249.155 85.3183 171.155Z" fill="#F6FA52" fill-opacity="0.33" stroke="#F37500"/>
<g id="Peperroni">
<g id="Pepperoni">
<ellipse id="Ellipse 3" cx="159" cy="139" rx="19" ry="18" fill="#EA2A2A"/>
<circle id="Ellipse 9" r="1.5" transform="matrix(-1 0 0 1 149.5 128.5)" fill="#E1BFBF"/>
<circle id="Ellipse 14" r="1.5" transform="matrix(-1 0 0 1 159.5 134.5)" fill="#E1BFBF"/>
<circle id="Ellipse 10" r="1.5" transform="matrix(-1 0 0 1 147.5 137.5)" fill="#E2DADA"/>
<circle id="Ellipse 13" r="1.5" transform="matrix(-1 0 0 1 167.5 133.5)" fill="#E1BFBF"/>
<circle id="Ellipse 12" r="1.5" transform="matrix(-1 0 0 1 162.5 142.5)" fill="#E2DADA"/>
<circle id="Ellipse 15" r="1.5" transform="matrix(-1 0 0 1 168.5 148.5)" fill="#E2DADA"/>
<circle id="Ellipse 11" r="1.5" transform="matrix(-1 0 0 1 153.5 147.5)" fill="#E1BFBF"/>
</g>
<g id="Pepperoni_2">
<ellipse id="Ellipse 3_2" cx="272" cy="151" rx="19" ry="18" fill="#EA2A2A"/>
<circle id="Ellipse 9_2" r="1.5" transform="matrix(-1 0 0 1 262.5 140.5)" fill="#E1BFBF"/>
<circle id="Ellipse 14_2" r="1.5" transform="matrix(-1 0 0 1 272.5 146.5)" fill="#E1BFBF"/>
<circle id="Ellipse 10_2" r="1.5" transform="matrix(-1 0 0 1 260.5 149.5)" fill="#E2DADA"/>
<circle id="Ellipse 13_2" r="1.5" transform="matrix(-1 0 0 1 280.5 145.5)" fill="#E1BFBF"/>
<circle id="Ellipse 12_2" r="1.5" transform="matrix(-1 0 0 1 275.5 154.5)" fill="#E2DADA"/>
<circle id="Ellipse 15_2" r="1.5" transform="matrix(-1 0 0 1 281.5 160.5)" fill="#E2DADA"/>
<circle id="Ellipse 11_2" r="1.5" transform="matrix(-1 0 0 1 266.5 159.5)" fill="#E1BFBF"/>
</g>
<g id="Pepperoni_3">
<ellipse id="Ellipse 3_3" cx="249" cy="237" rx="19" ry="18" fill="#EA2A2A"/>
<circle id="Ellipse 9_3" r="1.5" transform="matrix(-1 0 0 1 239.5 226.5)" fill="#E1BFBF"/>
<circle id="Ellipse 14_3" r="1.5" transform="matrix(-1 0 0 1 249.5 232.5)" fill="#E1BFBF"/>
<circle id="Ellipse 10_3" r="1.5" transform="matrix(-1 0 0 1 237.5 235.5)" fill="#E2DADA"/>
<circle id="Ellipse 13_3" r="1.5" transform="matrix(-1 0 0 1 257.5 231.5)" fill="#E1BFBF"/>
<circle id="Ellipse 12_3" r="1.5" transform="matrix(-1 0 0 1 252.5 240.5)" fill="#E2DADA"/>
<circle id="Ellipse 15_3" r="1.5" transform="matrix(-1 0 0 1 258.5 246.5)" fill="#E2DADA"/>
<circle id="Ellipse 11_3" r="1.5" transform="matrix(-1 0 0 1 243.5 245.5)" fill="#E1BFBF"/>
</g>
<g id="Pepperoni_4">
<ellipse id="Ellipse 3_4" cx="127" cy="197" rx="19" ry="18" fill="#EA2A2A"/>
<circle id="Ellipse 9_4" r="1.5" transform="matrix(-1 0 0 1 117.5 186.5)" fill="#E1BFBF"/>
<circle id="Ellipse 14_4" r="1.5" transform="matrix(-1 0 0 1 127.5 192.5)" fill="#E1BFBF"/>
<circle id="Ellipse 10_4" r="1.5" transform="matrix(-1 0 0 1 115.5 195.5)" fill="#E2DADA"/>
<circle id="Ellipse 13_4" r="1.5" transform="matrix(-1 0 0 1 135.5 191.5)" fill="#E1BFBF"/>
<circle id="Ellipse 12_4" r="1.5" transform="matrix(-1 0 0 1 130.5 200.5)" fill="#E2DADA"/>
<circle id="Ellipse 15_4" r="1.5" transform="matrix(-1 0 0 1 136.5 206.5)" fill="#E2DADA"/>
<circle id="Ellipse 11_4" r="1.5" transform="matrix(-1 0 0 1 121.5 205.5)" fill="#E1BFBF"/>
</g>
<g id="Pepperoni_5">
<ellipse id="Ellipse 3_5" cx="203" cy="174" rx="19" ry="18" fill="#EA2A2A"/>
<circle id="Ellipse 9_5" r="1.5" transform="matrix(-1 0 0 1 193.5 163.5)" fill="#E1BFBF"/>
<circle id="Ellipse 14_5" r="1.5" transform="matrix(-1 0 0 1 203.5 169.5)" fill="#E1BFBF"/>
<circle id="Ellipse 10_5" r="1.5" transform="matrix(-1 0 0 1 191.5 172.5)" fill="#E2DADA"/>
<circle id="Ellipse 13_5" r="1.5" transform="matrix(-1 0 0 1 211.5 168.5)" fill="#E1BFBF"/>
<circle id="Ellipse 12_5" r="1.5" transform="matrix(-1 0 0 1 206.5 177.5)" fill="#E2DADA"/>
<circle id="Ellipse 15_5" r="1.5" transform="matrix(-1 0 0 1 212.5 183.5)" fill="#E2DADA"/>
<circle id="Ellipse 11_5" r="1.5" transform="matrix(-1 0 0 1 197.5 182.5)" fill="#E1BFBF"/>
</g>
<g id="Pepperoni_6">
<ellipse id="Ellipse 3_6" cx="182" cy="252" rx="19" ry="18" fill="#EA2A2A"/>
<circle id="Ellipse 9_6" r="1.5" transform="matrix(-1 0 0 1 172.5 241.5)" fill="#E1BFBF"/>
<circle id="Ellipse 14_6" r="1.5" transform="matrix(-1 0 0 1 182.5 247.5)" fill="#E1BFBF"/>
<circle id="Ellipse 10_6" r="1.5" transform="matrix(-1 0 0 1 170.5 250.5)" fill="#E2DADA"/>
<circle id="Ellipse 13_6" r="1.5" transform="matrix(-1 0 0 1 190.5 246.5)" fill="#E1BFBF"/>
<circle id="Ellipse 12_6" r="1.5" transform="matrix(-1 0 0 1 185.5 255.5)" fill="#E2DADA"/>
<circle id="Ellipse 15_6" r="1.5" transform="matrix(-1 0 0 1 191.5 261.5)" fill="#E2DADA"/>
<circle id="Ellipse 11_6" r="1.5" transform="matrix(-1 0 0 1 176.5 260.5)" fill="#E1BFBF"/>
</g>
</g>
<g id="mushroom">
<g id="mushroom_2">
<g id="Component 1">
<ellipse id="Ellipse 16" cx="122.001" cy="142.55" rx="13" ry="6.5" transform="rotate(-5.73207 122.001 142.55)" fill="#C4C4C4"/>
<ellipse id="Ellipse 17" cx="123.3" cy="155.485" rx="5" ry="13.5" transform="rotate(-5.73207 123.3 155.485)" fill="#C4C4C4"/>
</g>
<g id="Component 2">
<ellipse id="Ellipse 16_2" cx="121.487" cy="142.434" rx="8.5" ry="4.33333" transform="rotate(-5.73207 121.487 142.434)" fill="#857B7B"/>
<ellipse id="Ellipse 17_2" cx="122.353" cy="151.057" rx="3.26923" ry="9" transform="rotate(-5.73207 122.353 151.057)" fill="#857B7B"/>
</g>
</g>
<g id="mushroom_3">
<g id="Component 1_2">
<ellipse id="Ellipse 16_3" cx="145.017" cy="232.544" rx="13" ry="3.54545" transform="rotate(146.416 145.017 232.544)" fill="#C4C4C4"/>
<ellipse id="Ellipse 17_3" cx="141.095" cy="226.637" rx="5" ry="7.36364" transform="rotate(146.416 141.095 226.637)" fill="#C4C4C4"/>
</g>
<g id="Component 2_2">
<ellipse id="Ellipse 16_4" cx="145.484" cy="232.343" rx="8.5" ry="2.36364" transform="rotate(146.416 145.484 232.343)" fill="#857B7B"/>
<ellipse id="Ellipse 17_4" cx="142.869" cy="228.405" rx="3.26923" ry="4.90909" transform="rotate(146.416 142.869 228.405)" fill="#857B7B"/>
</g>
</g>
<g id="mushroom_4">
<g id="Component 1_3">
<ellipse id="Ellipse 16_5" cx="251" cy="182.136" rx="13" ry="4.13636" fill="#C4C4C4"/>
<ellipse id="Ellipse 17_5" cx="251" cy="190.409" rx="5" ry="8.59091" fill="#C4C4C4"/>
</g>
<g id="Component 2_3">
<ellipse id="Ellipse 16_6" cx="250.5" cy="182.03" rx="8.5" ry="2.75758" fill="#857B7B"/>
<ellipse id="Ellipse 17_6" cx="250.5" cy="187.545" rx="3.26923" ry="5.72727" fill="#857B7B"/>
</g>
</g>
<g id="mushroom_5">
<g id="Component 1_4">
<ellipse id="Ellipse 16_7" cx="218.887" cy="119.352" rx="13" ry="6.5" transform="rotate(52.0628 218.887 119.352)" fill="#C4C4C4"/>
<ellipse id="Ellipse 17_7" cx="208.634" cy="127.344" rx="5" ry="13.5" transform="rotate(52.0628 208.634 127.344)" fill="#C4C4C4"/>
</g>
<g id="Component 2_4">
<ellipse id="Ellipse 16_8" cx="218.711" cy="118.855" rx="8.5" ry="4.33333" transform="rotate(52.0628 218.711 118.855)" fill="#857B7B"/>
<ellipse id="Ellipse 17_8" cx="211.876" cy="124.183" rx="3.26923" ry="9" transform="rotate(52.0628 211.876 124.183)" fill="#857B7B"/>
</g>
</g>
</g>
<g id="pepper">
<path d="M98.0392 172.484C98.1653 171.215 99.2967 170.288 100.566 170.414V170.414C101.836 170.54 102.763 171.671 102.637 172.941L100.228 197.201C100.102 198.471 98.9708 199.398 97.7012 199.272V199.272C96.4316 199.146 95.5046 198.014 95.6307 196.745L98.0392 172.484Z" fill="#1D5C1B"/>
<path d="M173.174 200.886C173.3 199.616 174.432 198.689 175.701 198.815V198.815C176.971 198.941 177.898 200.073 177.772 201.342L175.363 225.603C175.237 226.873 174.106 227.8 172.836 227.673V227.673C171.567 227.547 170.64 226.416 170.766 225.146L173.174 200.886Z" fill="#1D5C1B"/>
<path d="M231.539 140.984C231.665 139.715 232.797 138.788 234.066 138.914V138.914C235.336 139.04 236.263 140.171 236.137 141.441L233.728 165.701C233.602 166.971 232.471 167.898 231.201 167.772V167.772C229.932 167.646 229.005 166.514 229.131 165.245L231.539 140.984Z" fill="#1D5C1B"/>
<path d="M216.539 217.984C216.665 216.715 217.797 215.788 219.066 215.914V215.914C220.336 216.04 221.263 217.171 221.137 218.441L218.728 242.701C218.602 243.971 217.471 244.898 216.201 244.772V244.772C214.932 244.646 214.005 243.514 214.131 242.245L216.539 217.984Z" fill="#1D5C1B"/>
<path d="M286.174 206.342C286.3 205.073 287.432 204.146 288.701 204.272V204.272C289.971 204.398 290.898 205.529 290.772 206.799L288.363 231.059C288.237 232.329 287.106 233.256 285.836 233.13V233.13C284.567 233.004 283.64 231.872 283.766 230.603L286.174 206.342Z" fill="#1D5C1B"/>
</g>
</g>
</svg>
